Coordinates
version=1
nRows=12
nColumns=33
inDegrees=yes

Units are S.I. units (second, meters, Newtons, ...)
Angles are in degrees.

endheader
time	ground_thorax_rot_x	ground_thorax_rot_y	ground_thorax_rot_z	ground_thorax_tx	ground_thorax_ty	ground_thorax_tz	clav_prot_r	clav_elev_r	scapula_abduction_r	scapula_elevation_r	scapula_upward_rot_r	scapula_winging_r	shoulder_elv_r	plane_of_elev_r	axial_rot_r	elbow_flexion_r	pro_sup_r	wrist_flex_r	wrist_dev_r	clav_prot_l	clav_elev_l	scapula_abduction_l	scapula_elevation_l	scapula_upward_rot_l	scapula_winging_l	shoulder_elv_l	plane_of_elev_l	axial_rot_l	elbow_flexion_l	pro_sup_l	wrist_flex_l	wrist_dev_l
      4.18000000	     36.82418521	      4.55024815	     12.10999065	   -141.00193857	    822.84798492	      2.42803051	     15.61804739	     41.96310028	     45.00000000	     45.00000000	    -30.29025128	  -1886.47950014	  -2989.29892540	    146.40884081	   -168.11175981	      9.96881963	     23.71635870	     20.46192420	     12.73903150	      6.56743003	    -45.00000000	    -45.00000000	     45.00000000	    -11.37560165	   2975.01876975	  -1895.48333118	    137.59666785	    179.99999979	   -352.68090484	     10.36340968	     10.11811008	    -20.15337389
      4.19000000	     36.45510426	      5.80932162	     13.29542866	   -145.42739564	    823.50267510	      2.04116106	     16.85869037	     41.06293750	     45.00000000	     45.00000000	    -34.03934272	  -1886.34215238	  -2988.58773181	    145.84915961	   -174.49498503	      9.21705886	     29.16361607	     20.97588876	     12.21681850	      7.77692450	    -45.00000000	    -45.00000000	     45.00000000	    -13.72527299	   2975.80737240	  -1895.15487217	    137.22936354	    179.99999979	   -352.75668514	      9.96762511	     10.43681664	    -20.05904470
      4.20000000	     36.47323655	      5.89149864	     13.07834334	   -149.92946026	    824.01514104	      1.71640157	     16.84240915	     41.06089271	     45.00000000	     45.00000000	    -33.98772798	  -1886.63009925	  -2988.77207075	    145.90349506	   -178.11610222	      8.38368241	     32.99573640	     21.56419926	     12.41180242	      7.84234689	    -45.00000000	    -45.00000000	     45.00000000	    -13.80143255	   2976.28310686	  -1895.17049562	    137.29362557	    179.99999979	   -352.82823509	      9.63120674	     10.59421687	    -20.02755140
      4.21000000	     36.47332783	      6.20379425	     13.02420194	   -154.53102035	    824.39318853	      1.47350481	     16.72613849	     41.00835844	     44.87577779	     45.00000000	    -34.30148340	  -1887.01932506	  -2988.88194843	    145.87168281	   -179.99999979	      7.87454066	     36.04831749	     22.10070435	     12.42759025	      8.04197104	    -45.00000000	    -45.00000000	     45.00000000	    -14.75438754	   2976.61011542	  -1895.01402016	    137.26741469	    179.99999979	   -352.75304406	      9.46653180	     10.64275693	    -20.07417124
      4.22000000	     36.40587465	      6.64530314	     13.16870646	   -159.26732233	    824.64687508	      1.32956621	     16.63069335	     40.88931362	     44.47547738	     45.00000000	    -34.56796326	  -1887.19900670	  -2988.94938175	    145.94472165	   -179.99999979	      7.64886163	     38.16609070	     22.36096177	     12.10858054	      8.38021736	    -45.00000000	    -45.00000000	     45.00000000	    -15.66927778	   2977.00106848	  -1894.89547595	    137.24749946	    179.99999979	   -352.81472807	      9.37590528	     10.72470173	    -20.07809643
      4.23000000	     36.33910063	      7.09277825	     13.38405398	   -164.09471493	    824.79653912	      1.25521228	     16.57782176	     40.68151317	     44.10268078	     45.00000000	    -35.35478380	  -1887.25999456	  -2988.80987883	    145.97459965	   -179.99999979	      7.50650530	     39.83007737	     22.54379383	     11.80573712	      8.69895886	    -45.00000000	    -45.00000000	     45.00000000	    -16.65541496	   2977.39386000	  -1894.80033551	    137.23829646	    179.99999979	   -352.88810927	      9.29622747	     10.78943109	    -20.08251520
      4.24000000	     36.28025400	      7.49679562	     13.63943185	   -168.96227226	    824.86284687	      1.21894269	     16.61309275	     40.39887559	     43.71992825	     45.00000000	    -36.52287740	  -1887.25367097	  -2988.51283834	    145.87722862	   -179.99999979	      7.46329746	     41.27199793	     22.70140461	     11.55599587	      8.87434846	    -45.00000000	    -44.71731748	     45.00000000	    -17.94446615	   2977.65534408	  -1894.60993892	    137.22342247	    179.99999979	   -352.87969195	      9.23433458	     10.83005417	    -20.09405246
      4.25000000	     36.19659067	      7.99682202	     14.13134256	   -173.83571244	    824.87252274	      1.19785028	     16.69045517	     40.01843657	     43.47312136	     45.00000000	    -38.10828281	  -1887.20729542	  -2988.21036536	    145.85796619	   -179.99999979	      7.54524541	     42.71346048	     22.81030281	     11.19064560	      8.90933912	    -45.00000000	    -44.13207170	     45.00000000	    -19.56125048	   2977.84226778	  -1894.42793721	    137.17929108	    179.99999979	   -352.94533543	      9.17792698	     10.84994267	    -20.11470313
      4.26000000	     36.11610630	      8.50329751	     14.61770276	   -178.73091810	    824.84120334	      1.20281555	     16.68870769	     39.67220811	     43.18430052	     45.00000000	    -39.74741826	  -1887.15050101	  -2987.87899599	    145.86489986	   -178.56870527	      7.95541897	     44.23300192	     22.79200168	     10.59574183	      8.94920664	    -45.00000000	    -43.50990824	     45.00000000	    -21.30823134	   2977.92428031	  -1894.19713048	    137.16909175	    179.99999979	   -352.99954750	      9.17297525	     10.85430095	    -20.15713853
      4.27000000	     36.04968170	      8.79607374	     14.94619722	   -183.78457046	    824.81582288	      1.32028048	     16.74031839	     39.37986986	     42.91514107	     45.00000000	    -41.05559604	  -1887.18990729	  -2987.61288110	    145.94645389	   -173.30719292	      9.14722867	     45.65466385	     22.50670867	      9.64272187	      9.02277487	    -45.00000000	    -43.00146620	     45.00000000	    -22.68581900	   2978.11280558	  -1894.00814157	    137.11374930	    179.99999979	   -353.17634333	      9.04041547	     10.87699976	    -20.11917437
      4.28000000	     35.95757245	      9.19096597	     15.45807702	   -188.94105296	    824.79566141	      1.52569156	     16.70109464	     39.16593132	     42.63156109	     45.00000000	    -42.20086410	  -1887.28592865	  -2987.37894563	    146.14744616	   -165.71236822	     10.77464137	     47.32182530	     21.80040238	      8.25637778	      9.05304520	    -45.00000000	    -42.40877926	     45.00000000	    -24.44527212	   2978.24336163	  -1893.77641998	    137.11135869	    179.99999979	   -353.24193999	      8.90279589	     10.88000862	    -20.12996747
      4.29000000	     35.93535417	      9.44646992	     15.73328415	   -194.13507785	    824.76683728	      1.79701131	     16.75267551	     38.95661024	     42.37328834	     45.00000000	    -42.79021091	  -1887.60229205	  -2987.21708827	    146.31199647	   -157.81223305	     12.38934103	     49.05322600	     20.91599174	      6.92866545	      9.19169985	    -45.00000000	    -42.10615598	     45.00000000	    -25.69283693	   2978.51954333	  -1893.74807140	    137.03637632	    179.99999979	   -353.45465063	      8.77685951	     10.96528135	    -20.06331577
